<svg width="58" height="55" viewBox="0 0 58 55" fill="none" xmlns="http://www.w3.org/2000/svg">
<path fill-rule="evenodd" clip-rule="evenodd" d="M43.5473 17.1734C44.0777 17.0907 44.6198 17.2524 45.0061 17.6084C49.4977 21.75 51.9713 27.293 51.9713 33.2162C51.9713 45.2277 41.6667 54.9998 29.0007 54.9998C18.5233 54.9998 9.38328 48.2733 6.77385 38.6422C6.27938 36.8149 6.02869 34.9895 6.02869 33.2162C6.02869 29.7352 6.88623 26.3889 8.57751 23.2705C10.242 20.2048 12.6894 17.5204 15.6556 15.5065C15.6728 15.4948 15.6903 15.4834 15.708 15.4723C15.8173 15.4039 15.9341 15.3229 16.0577 15.2371L16.0704 15.2283C16.0829 15.2196 16.0954 15.2109 16.108 15.2022C16.1574 15.1679 16.2069 15.1335 16.2567 15.0995C20.973 11.8992 23.9351 6.93802 24.388 1.48485C24.4326 0.946668 24.7585 0.465525 25.2561 0.203094C25.7538 -0.0592307 26.3564 -0.0679318 26.8622 0.17989C32.6719 3.02732 36.9369 8.10204 38.5634 14.1027C39.0581 15.9297 39.3088 17.7551 39.3088 19.5289C39.3088 20.4534 39.2452 21.3754 39.1189 22.2919C40.3859 21.0232 41.4627 19.5879 42.3105 18.0261C42.557 17.5721 43.0159 17.2558 43.5473 17.1734ZM28.1212 40C32.0039 40 35.1515 37.0152 35.1515 33.3333C35.1515 29.6514 32.0039 26.6667 28.1212 26.6667C24.2385 26.6667 21.0909 29.6514 21.0909 33.3333C21.0909 37.0152 24.2385 40 28.1212 40Z" fill="#6359E9"/>
</svg>
